name Walk7.mot
datacolumns 19
datarows 12
range 3.58600000 3.59700000
endheader

                time	   L_ground_force_vx	   L_ground_force_vy	   L_ground_force_vz	   L_ground_force_px	   L_ground_force_py	   L_ground_force_pz	   R_ground_force_vx	   R_ground_force_vy	   R_ground_force_vz	   R_ground_force_px	   R_ground_force_py	   R_ground_force_pz	   L_ground_torque_x	   L_ground_torque_y	   L_ground_torque_z	   R_ground_torque_x	   R_ground_torque_y	   R_ground_torque_z	
          3.58600000	          8.84272121	         93.94623686	          1.58805749	          0.39305619	          0.00000000	          0.09314953	          0.00000000	          0.00000000	          0.00000000	          0.00000000	          0.00000000	          0.00000000	          0.00000000	         -3.98824724	          0.00000000	          0.00000000	          0.00000000	          0.00000000	
          3.58700000	          7.91569944	         89.11163025	          1.31100137	          0.39417652	          0.00000000	          0.09259044	          0.00000000	          0.00000000	          0.00000000	          0.00000000	          0.00000000	          0.00000000	          0.00000000	         -3.79941396	          0.00000000	          0.00000000	          0.00000000	          0.00000000	
          3.58800000	          6.99397300	         84.33647046	          1.05080341	          0.39523969	          0.00000000	          0.09233325	          0.00000000	          0.00000000	          0.00000000	          0.00000000	          0.00000000	          0.00000000	          0.00000000	         -3.60347732	          0.00000000	          0.00000000	          0.00000000	          0.00000000	
          3.58900000	          6.06511549	         79.64548571	          0.79321880	          0.39617636	          0.00000000	          0.09249738	          0.00000000	          0.00000000	          0.00000000	          0.00000000	          0.00000000	          0.00000000	          0.00000000	         -3.40720951	          0.00000000	          0.00000000	          0.00000000	          0.00000000	
          3.59000000	          5.13619414	         75.05916719	          0.51711717	          0.39689041	          0.00000000	          0.09305260	          0.00000000	          0.00000000	          0.00000000	          0.00000000	          0.00000000	          0.00000000	          0.00000000	         -3.21990696	          0.00000000	          0.00000000	          0.00000000	          0.00000000	
          3.59100000	          4.22328532	         70.61404412	          0.22212151	          0.39744230	          0.00000000	          0.09396215	          0.00000000	          0.00000000	          0.00000000	          0.00000000	          0.00000000	          0.00000000	          0.00000000	         -3.04997700	          0.00000000	          0.00000000	          0.00000000	          0.00000000	
          3.59200000	          3.33746441	         66.35698498	         -0.06882610	          0.39792090	          0.00000000	          0.09514367	          0.00000000	          0.00000000	          0.00000000	          0.00000000	          0.00000000	          0.00000000	          0.00000000	         -2.90126330	          0.00000000	          0.00000000	          0.00000000	          0.00000000	
          3.59300000	          2.48623764	         62.30932768	         -0.33624510	          0.39831348	          0.00000000	          0.09632944	          0.00000000	          0.00000000	          0.00000000	          0.00000000	          0.00000000	          0.00000000	          0.00000000	         -2.76977961	          0.00000000	          0.00000000	          0.00000000	          0.00000000	
          3.59400000	          1.68285162	         58.46458214	         -0.57896543	          0.39880721	          0.00000000	          0.09719218	          0.00000000	          0.00000000	          0.00000000	          0.00000000	          0.00000000	          0.00000000	          0.00000000	         -2.64513607	          0.00000000	          0.00000000	          0.00000000	          0.00000000	
          3.59500000	          0.94853846	         54.80568710	         -0.80911606	          0.39993276	          0.00000000	          0.09754682	          0.00000000	          0.00000000	          0.00000000	          0.00000000	          0.00000000	          0.00000000	          0.00000000	         -2.51741867	          0.00000000	          0.00000000	          0.00000000	          0.00000000	
          3.59600000	          0.30241996	         51.28654147	         -1.04298398	          0.40199796	          0.00000000	          0.09722463	          0.00000000	          0.00000000	          0.00000000	          0.00000000	          0.00000000	          0.00000000	          0.00000000	         -2.38403190	          0.00000000	          0.00000000	          0.00000000	          0.00000000	
          3.59700000	         -0.25967003	         47.82863558	         -1.28778178	          0.40455111	          0.00000000	          0.09594706	          0.00000000	          0.00000000	          0.00000000	          0.00000000	          0.00000000	          0.00000000	          0.00000000	         -2.25151191	          0.00000000	          0.00000000	          0.00000000	          0.00000000	
